<svg xmlns="http://www.w3.org/2000/svg" viewBox="0 0 200 200" fill="none">
  <rect width="200" height="200" fill="#f0f4f8"/>
  <rect x="40" y="55" width="120" height="85" rx="6" fill="#4a5568" stroke="#2d3748" stroke-width="2"/>
  <rect x="50" y="65" width="100" height="65" rx="3" fill="#2d3748"/>
  <g fill="#e2e8f0"><circle cx="68" cy="80" r="2.5"/><circle cx="80" cy="80" r="2.5"/><circle cx="92" cy="80" r="2.5"/><circle cx="104" cy="80" r="2.5"/><circle cx="116" cy="80" r="2.5"/><circle cx="128" cy="80" r="2.5"/>
  <circle cx="74" cy="92" r="2.5"/><circle cx="86" cy="92" r="2.5"/><circle cx="98" cy="92" r="2.5"/><circle cx="110" cy="92" r="2.5"/><circle cx="122" cy="92" r="2.5"/>
  <circle cx="68" cy="104" r="2.5"/><circle cx="80" cy="104" r="2.5"/><circle cx="92" cy="104" r="2.5"/><circle cx="104" cy="104" r="2.5"/><circle cx="116" cy="104" r="2.5"/><circle cx="128" cy="104" r="2.5"/></g>
  <rect x="80" y="140" width="40" height="18" rx="3" fill="#4a5568"/>
  <text x="100" y="180" text-anchor="middle" font-size="10" fill="#718096" font-family="sans-serif">AMPSEAL 23-Pin</text>
</svg>