<svg xmlns="http://www.w3.org/2000/svg" viewBox="0 0 200 200" fill="none">
  <rect width="200" height="200" fill="#f0f4f8"/>
  <rect x="30" y="65" width="140" height="55" rx="3" fill="#38a169" stroke="#276749" stroke-width="1.5"/>
  <g fill="#e2e8f0"><rect x="38" y="72" width="8" height="40" rx="1"/><rect x="50" y="72" width="8" height="40" rx="1"/><rect x="62" y="72" width="8" height="40" rx="1"/><rect x="74" y="72" width="8" height="40" rx="1"/><rect x="86" y="72" width="8" height="40" rx="1"/><rect x="98" y="72" width="8" height="40" rx="1"/>
  <rect x="110" y="72" width="8" height="40" rx="1"/><rect x="122" y="72" width="8" height="40" rx="1"/><rect x="134" y="72" width="8" height="40" rx="1"/><rect x="146" y="72" width="8" height="40" rx="1"/><rect x="158" y="72" width="8" height="40" rx="1"/></g>
  <g fill="#a0aec0"><rect x="40" y="120" width="4" height="20"/><rect x="52" y="120" width="4" height="20"/><rect x="64" y="120" width="4" height="20"/><rect x="76" y="120" width="4" height="20"/><rect x="88" y="120" width="4" height="20"/><rect x="100" y="120" width="4" height="20"/>
  <rect x="112" y="120" width="4" height="20"/><rect x="124" y="120" width="4" height="20"/><rect x="136" y="120" width="4" height="20"/><rect x="148" y="120" width="4" height="20"/><rect x="160" y="120" width="4" height="20"/></g>
  <text x="100" y="170" text-anchor="middle" font-size="10" fill="#718096" font-family="sans-serif">PCB Terminal</text>
</svg>