<svg xmlns="http://www.w3.org/2000/svg" width="226.05" height="110.872" viewBox="0 0 113.025 55.436">
<g style="fill:#FFFFFF">
 <path d="M92.159,3.664C83.8,6.47,79.862,8.653,73.353,11.069L70.459,12l-22.9-1.637L43.215,12l13.18,4.677c-1.929.935-9.4,4.054-21.94,4.6h0C20.149,21.827,8.9,17.773,19.426,10.368h0C27.7,4.833,42.33,2.261,60.253,2.261A133.23,133.23,0,0,1,85.488,4.6c1.206-.468,2.491-.935,3.938-1.481A132.956,132.956,0,0,0,60.253,0C41.929,0,27.462,3.04,18.542,8.575h0C4.959,16.994,18.22,25.49,37.187,25.257h0a101.007,101.007,0,0,0,27.405-4.6L78.255,26.27l2.491-.857-2.733-7.639-7.8,1.793-.161-.234S85.006,12.94,88.381,11.3c7.876-3.9,10.85-6.548,11.894-7.717.884-1.091-2.25-1.871-8.117.078" transform="translate(-2.862 0)"/>
 <path d="M53.565,38.5,29.4,63.289h7.639L55.2,44.658l-1.715,8.731H48.81L44.835,57.6h8.029l-.857,5.691h7.873l3.9-24.789Z" transform="translate(-6.146 -7.931)"/>
 <path d="M127.229,27.834c-.39-6.781-7.172-15.3-17.7-19.634a21.587,21.587,0,0,1-1.949,1.656c10.29,3.942,17.227,12.458,17.227,18.608.078,7.727-8.5,17.426-23.074,18.766l2.339-15.06H93.865l-24.165,25h7.639L95.5,38.32l-1.715,8.831H89.11L85.135,51.41h8.029l-.78,5.756h7.8l.935-6.229c16.526-2.444,26.738-12.774,26.114-23.1" transform="translate(-14.231 -1.808)"/>
 <path d="M29.778,42.731,32.35,38.6H13.408L0,63.311H21.749L24.321,59.1H11.069l2.962-5.535H22.84l2.417-4.209H16.292l3.586-6.626Z" transform="translate(0 -7.953)"/>
 <path d="M117.221,66.983a2.2,2.2,0,0,1-2.261,2.183,2.247,2.247,0,0,1-2.261-2.183,2.2,2.2,0,0,1,2.261-2.183,2.247,2.247,0,0,1,2.261,2.183m-3.9.078a1.6,1.6,0,0,0,1.637,1.637,1.647,1.647,0,0,0,1.637-1.637,1.6,1.6,0,0,0-1.637-1.637,1.555,1.555,0,0,0-1.637,1.637m1.325,1.013h-.624V66.047c.156,0,.468-.078.935-.078a1.818,1.818,0,0,1,.857.156.471.471,0,0,1,.234.468q0,.351-.468.468h0c.234.078.312.234.39.546s.078.39.156.468h-.7c-.078-.078-.078-.234-.156-.468a.286.286,0,0,0-.312-.312h-.234v.78Zm0-1.169h.156c.234,0,.39-.078.39-.234s-.156-.234-.39-.234h-.234V66.9Z" transform="translate(-23.918 -13.73)"/>
</g>
</svg>
